<svg width="731" height="674" viewBox="0 0 731 674" fill="none" xmlns="http://www.w3.org/2000/svg">
<path d="M242 341.582C143 381 1 532 1 673L36.8161 670.065C41.8161 558.065 133.461 457.102 242 416.065C466.816 331.065 730 284.126 730 1.12555H537C561 204 377.973 287.442 242 341.582Z" fill="#B90C0C" fill-opacity="0.92" style="mix-blend-mode:darken"/>
<path d="M242 341.582C143 381 1 532 1 673L36.8161 670.065C41.8161 558.065 133.461 457.102 242 416.065C466.816 331.065 730 284.126 730 1.12555H537C561 204 377.973 287.442 242 341.582Z" stroke="#9BA497" stroke-opacity="0.93" stroke-linejoin="round"/>
</svg>
